<?xml version="1.0" standalone="no"?>
<!DOCTYPE svg PUBLIC "-//W3C//DTD SVG 20010904//EN"
 "http://www.w3.org/TR/2001/REC-SVG-20010904/DTD/svg10.dtd">
<svg version="1.0" xmlns="http://www.w3.org/2000/svg"
 width="396.000000pt" height="382.000000pt" viewBox="0 0 396.000000 382.000000"
 preserveAspectRatio="xMidYMid meet">

<g transform="translate(0.000000,382.000000) scale(0.100000,-0.100000)"
fill="#000000" stroke="none">
<path d="M1630 3639 c-582 -19 -912 -118 -1140 -339 -232 -226 -328 -520 -361
-1110 -12 -211 -6 -623 12 -805 26 -270 86 -521 156 -660 164 -324 466 -509
928 -569 414 -53 1104 -44 1437 19 398 75 660 254 811 550 34 69 92 242 112
340 82 398 84 1208 4 1610 -109 545 -401 825 -959 919 -243 41 -615 58 -1000
45z m625 -349 c413 -30 646 -103 793 -249 181 -179 252 -500 252 -1152 0 -671
-69 -986 -256 -1172 -158 -156 -413 -225 -920 -247 -420 -19 -860 12 -1081 76
-121 34 -239 95 -302 156 -210 201 -280 539 -268 1288 7 411 27 585 88 773
112 345 363 485 939 526 169 12 594 12 755 1z"/>
<path d="M1565 2040 c-203 -3 -296 -9 -312 -17 -29 -17 -60 -69 -68 -116 -10
-51 16 -117 61 -157 l35 -30 604 0 604 0 35 30 c43 39 71 107 63 156 -8 51
-49 108 -90 127 -38 18 -249 20 -932 7z"/>
</g>
</svg>
